<svg xmlns="http://www.w3.org/2000/svg" width="111" height="110" viewBox="0 0 111 110">
<circle fill="#FFFFFF" cx="65" cy="64" r="46"/>
<g><path fill="#3A0299" d="M51.583,72.314H1.471v-9.698l23.65-24.588c3.247-3.461,5.649-6.482,7.206-9.062c1.557-2.579,2.335-5.028,2.335-7.347c0-3.167-0.821-5.658-2.46-7.47c-1.641-1.813-3.984-2.719-7.03-2.719c-3.281,0-5.867,1.103-7.758,3.307c-1.892,2.204-2.837,5.102-2.837,8.694H0.015c0-4.342,1.062-8.31,3.188-11.902c2.125-3.592,5.129-6.408,9.013-8.449c3.883-2.041,8.285-3.062,13.206-3.062c7.532,0,13.382,1.764,17.549,5.29c4.168,3.527,6.252,8.507,6.252,14.939c0,3.526-0.938,7.119-2.812,10.776c-1.875,3.657-5.089,7.919-9.641,12.784L20.15,60.901h31.433V72.314z"/></g>
<path fill="#CFECFF" d="M57.793,82.311c-3.37,0-6.102,2.732-6.102,6.102s2.732,6.102,6.102,6.102s6.102-2.732,6.102-6.102S61.163,82.311,57.793,82.311z M106,94.411L89.767,79.26h4.635v-6.102H57.614c-0.339,0-0.379-0.067-0.197-0.358l3.587-5.744H83.79c2.215,0,4.259-1.203,5.333-3.14l10.988-19.788c1.132-2.032-0.339-4.529-2.664-4.529H52.454l-2.544-6.113L39.5,33.54l0.03,6.102l6.316-0.03l10.052,24.114l-3.653,5.839c-2.558,4.084,0.552,9.695,5.369,9.695H85v4.026c-1.684,1.086-2.801,2.974-2.801,5.127s1.117,4.041,2.801,5.127v10.147l7.175-6.825l5.6,12.95l3.85-1.75L95.85,95.286L106,94.411z"/>
<path fill="#023199" d="M54.793,80.311c-3.37,0-6.102,2.732-6.102,6.102s2.732,6.102,6.102,6.102s6.102-2.732,6.102-6.102S58.163,80.311,54.793,80.311z M103,92.411L86.767,77.26h4.635v-6.102H54.614c-0.339,0-0.379-0.067-0.197-0.358l3.587-5.744H80.79c2.215,0,4.259-1.203,5.333-3.14l10.988-19.788c1.132-2.032-0.339-4.529-2.664-4.529H49.454l-2.544-6.113L36.5,31.54l0.03,6.102l6.316-0.03l10.052,24.114l-3.653,5.839c-2.558,4.084,0.552,9.695,5.369,9.695H82v4.026c-1.684,1.086-2.801,2.974-2.801,5.127s1.117,4.041,2.801,5.127v10.147l7.175-6.825l5.6,12.95l3.85-1.75L92.85,93.286L103,92.411z"/>
<path fill="#FFE35A" d="M43.91,28.486L33.5,28.54l0.03,6.102l6.316-0.03l10.052,24.114l-3.653,5.839c-2.558,4.084,0.552,9.695,5.369,9.695h36.788v-6.102H51.614c-0.339,0-0.379-0.067-0.197-0.358l3.587-5.744H77.79c2.215,0,4.259-1.203,5.333-3.14l10.988-19.788c1.132-2.032-0.339-4.529-2.663-4.529H46.454L43.91,28.486z"/>
<path fill="#FEC433" d="M51.793,77.311c-3.37,0-6.102,2.732-6.102,6.102s2.732,6.102,6.102,6.102s6.102-2.732,6.102-6.102S55.163,77.311,51.793,77.311z M82.301,77.311c-3.37,0-6.102,2.732-6.102,6.102s2.732,6.102,6.102,6.102s6.102-2.732,6.102-6.102S85.67,77.311,82.301,77.311z"/>
<path fill="#F96446" d="M79,69.811l21,19.6l-10.15,0.875l5.775,12.775l-3.85,1.75l-5.6-12.95L79,98.686V69.811"/>
</svg>