<svg xmlns="http://www.w3.org/2000/svg" width="111" height="110" viewBox="0 0 111 110">
<circle fill="#FFFFFF" cx="65" cy="64" r="46"/>
<g><path fill="#3A0299" d="M30,72H16.325V16.988L0,22.272V10.667L28.533,0H30V72z"/></g>
<path fill="#CFECFF" d="M109.81,81.189c-1.255-2.622-3.137-4.715-5.51-5.911V58.75h3.7v-7.4l-5.55-11.1h-62.9L34,51.35v7.4h3.7v29.6c0,4.09,3.31,7.4,7.4,7.4h31.345c2.25,3.201,5.063,5.747,6.694,7.224l0.616,0.564c2.542,2.376,8.245,6.289,8.245,6.289s5.703-3.917,8.245-6.289l0.616-0.564C104.569,99.618,114.381,90.743,109.81,81.189z"/>
<path fill="#023199" d="M106.81,78.189c-1.255-2.622-3.137-4.715-5.51-5.911V55.75h3.7v-7.4l-5.55-11.1h-62.9L31,48.35v7.4h3.7v29.6c0,4.09,3.31,7.4,7.4,7.4h31.345c2.25,3.201,5.063,5.747,6.694,7.224l0.616,0.564c2.542,2.376,8.245,6.289,8.245,6.289s5.703-3.917,8.245-6.289l0.616-0.564C101.569,96.618,111.381,87.743,106.81,78.189z"/>
<path fill="#FFE35A" d="M98.3,51.75v30.4c0,4.202-3.309,7.6-7.4,7.6H39.1c-4.091,0-7.4-3.398-7.4-7.6v-30.4H98.3z"/>
<polygon fill="#FEC433" points="102,45.35 102,52.75 28,52.75 28,45.35 33.55,34.25 96.45,34.25 "/>
<path fill="#023199" d="M46.5,74.953h14.8v-14.8H46.5V74.953z M68.7,60.153v22.2h14.8v-22.2H68.7z"/>
<path fill="#F96446" d="M78.401,68.172c-4.628,0.008-8.213,2.843-10.211,7.017c-4.571,9.554,5.241,18.429,8.95,21.786l0.616,0.564c2.542,2.376,8.245,6.289,8.245,6.289s5.703-3.917,8.245-6.289l0.616-0.564c3.708-3.357,13.52-12.232,8.95-21.786c-1.999-4.174-5.583-7.009-10.211-7.017c-2.918-0.004-6.292,1.783-7.599,3.802C84.811,69.955,81.319,68.168,78.401,68.172z"/>
</svg>